Exo-ExtraBoldItalic.ufo
<glyph name="six" format="1">
  <advance width="602"/>
  <unicode hex="0036"/>
  <note>
    GF Latin Plus glyph
  </note>
  <outline>
    <contour>
      <point x="265" y="310" type="curve"/>
      <point x="370" y="310" type="line" smooth="yes"/>
      <point x="413" y="310"/>
      <point x="432" y="302"/>
      <point x="432" y="270" type="curve" smooth="yes"/>
      <point x="432" y="263"/>
      <point x="431" y="256"/>
      <point x="430" y="247" type="curve" smooth="yes"/>
      <point x="425" y="210" type="line" smooth="yes"/>
      <point x="418" y="168"/>
      <point x="398" y="150"/>
      <point x="360" y="150" type="curve" smooth="yes"/>
      <point x="331" y="150" type="line" smooth="yes"/>
      <point x="281" y="150"/>
      <point x="257" y="169"/>
      <point x="257" y="232" type="curve" smooth="yes"/>
      <point x="257" y="253"/>
      <point x="261" y="279"/>
    </contour>
    <contour>
      <point x="86" y="210" type="curve" smooth="yes"/>
      <point x="86" y="41"/>
      <point x="152" y="-5"/>
      <point x="271" y="-5" type="curve" smooth="yes"/>
      <point x="376" y="-5" type="line" smooth="yes"/>
      <point x="488" y="-5"/>
      <point x="572" y="46"/>
      <point x="591" y="174" type="curve" smooth="yes"/>
      <point x="608" y="281" type="line" smooth="yes"/>
      <point x="611" y="298"/>
      <point x="613" y="314"/>
      <point x="613" y="328" type="curve" smooth="yes"/>
      <point x="613" y="406"/>
      <point x="570" y="457"/>
      <point x="443" y="457" type="curve" smooth="yes"/>
      <point x="372" y="457"/>
      <point x="329" y="453"/>
      <point x="285" y="438" type="curve"/>
      <point x="302" y="538"/>
      <point x="348" y="593"/>
      <point x="442" y="593" type="curve" smooth="yes"/>
      <point x="614" y="593" type="line"/>
      <point x="635" y="729" type="line"/>
      <point x="584" y="742"/>
      <point x="517" y="748"/>
      <point x="448" y="748" type="curve" smooth="yes"/>
      <point x="184" y="748"/>
      <point x="86" y="526"/>
    </contour>
  </outline>
</glyph>
<glyph name="at" format="1">
  <advance width="937"/>
  <unicode hex="0040"/>
  <note>
    GF Latin Plus glyph
  </note>
  <outline>
    <contour>
      <point x="539" y="409" type="curve" smooth="yes"/>
      <point x="555" y="409"/>
      <point x="578" y="406"/>
      <point x="606" y="399" type="curve"/>
      <point x="570" y="167" type="line"/>
      <point x="545" y="141"/>
      <point x="502" y="125"/>
      <point x="462" y="125" type="curve" smooth="yes"/>
      <point x="416" y="125"/>
      <point x="399" y="158"/>
      <point x="399" y="207" type="curve" smooth="yes"/>
      <point x="399" y="328"/>
      <point x="453" y="409"/>
    </contour>
    <contour>
      <point x="51" y="53" type="line" smooth="yes"/>
      <point x="48" y="33"/>
      <point x="46" y="13"/>
      <point x="46" y="-7" type="curve" smooth="yes"/>
      <point x="46" y="-108"/>
      <point x="96" y="-196"/>
      <point x="263" y="-196" type="curve" smooth="yes"/>
      <point x="352" y="-196" type="line" smooth="yes"/>
      <point x="478" y="-196"/>
      <point x="594" y="-181"/>
      <point x="644" y="-172" type="curve"/>
      <point x="659" y="-76" type="line"/>
      <point x="273" y="-76" type="line" smooth="yes"/>
      <point x="202" y="-76"/>
      <point x="179" y="-40"/>
      <point x="179" y="6" type="curve" smooth="yes"/>
      <point x="179" y="15"/>
      <point x="180" y="25"/>
      <point x="182" y="35" type="curve" smooth="yes"/>
      <point x="253" y="486" type="line" smooth="yes"/>
      <point x="263" y="546"/>
      <point x="284" y="613"/>
      <point x="382" y="613" type="curve" smooth="yes"/>
      <point x="731" y="613" type="line" smooth="yes"/>
      <point x="790" y="613"/>
      <point x="835" y="588"/>
      <point x="835" y="529" type="curve" smooth="yes"/>
      <point x="835" y="516"/>
      <point x="833" y="502"/>
      <point x="831" y="486" type="curve" smooth="yes"/>
      <point x="790" y="211" type="line" smooth="yes"/>
      <point x="778" y="123"/>
      <point x="741" y="114"/>
      <point x="693" y="114" type="curve"/>
      <point x="749" y="469" type="line"/>
      <point x="699" y="508"/>
      <point x="638" y="537"/>
      <point x="550" y="537" type="curve" smooth="yes"/>
      <point x="401" y="537"/>
      <point x="268" y="412"/>
      <point x="268" y="187" type="curve" smooth="yes"/>
      <point x="268" y="48"/>
      <point x="336" y="-6"/>
      <point x="414" y="-6" type="curve" smooth="yes"/>
      <point x="484" y="-6"/>
      <point x="538" y="30"/>
      <point x="556" y="54" type="curve"/>
      <point x="586" y="0" type="line"/>
      <point x="689" y="0" type="line" smooth="yes"/>
      <point x="824" y="0"/>
      <point x="901" y="66"/>
      <point x="920" y="194" type="curve" smooth="yes"/>
      <point x="961" y="468" type="line" smooth="yes"/>
      <point x="965" y="494"/>
      <point x="967" y="520"/>
      <point x="967" y="543" type="curve" smooth="yes"/>
      <point x="967" y="654"/>
      <point x="903" y="734"/>
      <point x="770" y="734" type="curve" smooth="yes"/>
      <point x="410" y="734" type="line" smooth="yes"/>
      <point x="257" y="734"/>
      <point x="154" y="696"/>
      <point x="126" y="521" type="curve" smooth="yes"/>
    </contour>
  </outline>
</glyph>
<glyph name="Z" format="1">
  <advance width="570"/>
  <unicode hex="005A"/>
  <note>
    GF Latin Plus glyph
  </note>
  <outline>
    <contour>
      <point x="32" y="0" type="line"/>
      <point x="539" y="0" type="line"/>
      <point x="564" y="155" type="line"/>
      <point x="255" y="155" type="line"/>
      <point x="623" y="595" type="line"/>
      <point x="646" y="742" type="line"/>
      <point x="150" y="742" type="line"/>
      <point x="125" y="587" type="line"/>
      <point x="424" y="587" type="line"/>
      <point x="55" y="146" type="line"/>
    </contour>
    <contour>
      <point x="416" y="810" type="move" name="top"/>
    </contour>
    <contour>
      <point x="264" y="-150" type="move" name="bottom"/>
    </contour>
  </outline>
</glyph>
<glyph name="bracketright" format="1">
  <advance width="342"/>
  <unicode hex="005D"/>
  <note>
    GF Latin Plus glyph
  </note>
  <outline>
    <contour>
      <point x="1" y="-72" type="line"/>
      <point x="-20" y="-210" type="line"/>
      <point x="65" y="-210" type="line" smooth="yes"/>
      <point x="228" y="-210"/>
      <point x="272" y="-88"/>
      <point x="288" y="6" type="curve" smooth="yes"/>
      <point x="388" y="644" type="line" smooth="yes"/>
      <point x="392" y="663"/>
      <point x="393" y="682"/>
      <point x="393" y="699" type="curve" smooth="yes"/>
      <point x="393" y="790"/>
      <point x="346" y="842"/>
      <point x="231" y="842" type="curve" smooth="yes"/>
      <point x="146" y="842" type="line"/>
      <point x="125" y="704" type="line"/>
      <point x="157" y="704" type="line" smooth="yes"/>
      <point x="192" y="704"/>
      <point x="214" y="689"/>
      <point x="214" y="646" type="curve" smooth="yes"/>
      <point x="214" y="637"/>
      <point x="213" y="628"/>
      <point x="212" y="618" type="curve" smooth="yes"/>
      <point x="116" y="14" type="line" smooth="yes"/>
      <point x="106" y="-48"/>
      <point x="78" y="-72"/>
      <point x="34" y="-72" type="curve" smooth="yes"/>
    </contour>
  </outline>
</glyph>
<glyph name="b" format="1">
  <advance width="586"/>
  <unicode hex="0062"/>
  <note>
    GF Latin Plus glyph
  </note>
  <outline>
    <contour>
      <point x="247" y="159" type="curve"/>
      <point x="283" y="385" type="line"/>
      <point x="308" y="398"/>
      <point x="344" y="406"/>
      <point x="372" y="406" type="curve" smooth="yes"/>
      <point x="403" y="406"/>
      <point x="428" y="387"/>
      <point x="428" y="325" type="curve" smooth="yes"/>
      <point x="428" y="311"/>
      <point x="426" y="293"/>
      <point x="423" y="272" type="curve" smooth="yes"/>
      <point x="409" y="166"/>
      <point x="378" y="132"/>
      <point x="331" y="132" type="curve" smooth="yes"/>
      <point x="290" y="132"/>
      <point x="267" y="141"/>
    </contour>
    <contour>
      <point x="48" y="0" type="line"/>
      <point x="203" y="0" type="line"/>
      <point x="230" y="50" type="line"/>
      <point x="266" y="16"/>
      <point x="324" y="-6"/>
      <point x="386" y="-6" type="curve" smooth="yes"/>
      <point x="490" y="-6"/>
      <point x="564" y="76"/>
      <point x="587" y="227" type="curve" smooth="yes"/>
      <point x="595" y="277"/>
      <point x="601" y="322"/>
      <point x="601" y="353" type="curve" smooth="yes"/>
      <point x="601" y="475"/>
      <point x="536" y="544"/>
      <point x="431" y="544" type="curve" smooth="yes"/>
      <point x="396" y="544"/>
      <point x="344" y="531"/>
      <point x="302" y="510" type="curve"/>
      <point x="342" y="763" type="line"/>
      <point x="170" y="763" type="line"/>
    </contour>
    <contour>
      <point x="270" y="850" type="move" name="top"/>
    </contour>
    <contour>
      <point x="274" y="-150" type="move" name="bottom"/>
    </contour>
  </outline>
</glyph>
<glyph name="d" format="1">
  <advance width="578"/>
  <unicode hex="0064"/>
  <note>
    GF Latin Plus glyph
  </note>
  <outline>
    <contour>
      <point x="249" y="270" type="curve" smooth="yes"/>
      <point x="270" y="387"/>
      <point x="312" y="406"/>
      <point x="362" y="406" type="curve" smooth="yes"/>
      <point x="387" y="406"/>
      <point x="406" y="401"/>
      <point x="418" y="395" type="curve"/>
      <point x="381" y="165" type="line"/>
      <point x="360" y="148"/>
      <point x="334" y="132"/>
      <point x="298" y="132" type="curve" smooth="yes"/>
      <point x="268" y="132"/>
      <point x="243" y="150"/>
      <point x="243" y="211" type="curve" smooth="yes"/>
      <point x="243" y="231"/>
      <point x="245" y="249"/>
    </contour>
    <contour>
      <point x="83" y="299" type="curve" smooth="yes"/>
      <point x="75" y="259"/>
      <point x="71" y="219"/>
      <point x="71" y="183" type="curve" smooth="yes"/>
      <point x="71" y="65"/>
      <point x="120" y="-6"/>
      <point x="220" y="-6" type="curve" smooth="yes"/>
      <point x="274" y="-6"/>
      <point x="326" y="20"/>
      <point x="364" y="53" type="curve"/>
      <point x="374" y="0" type="line"/>
      <point x="528" y="0" type="line"/>
      <point x="649" y="763" type="line"/>
      <point x="476" y="763" type="line"/>
      <point x="440" y="536" type="line"/>
      <point x="415" y="542"/>
      <point x="385" y="544"/>
      <point x="353" y="544" type="curve" smooth="yes"/>
      <point x="168" y="544"/>
      <point x="113" y="451"/>
    </contour>
    <contour>
      <point x="651" y="650" type="move" name="altcaron"/>
    </contour>
    <contour>
      <point x="577" y="850" type="move" name="top"/>
    </contour>
    <contour>
      <point x="266" y="-150" type="move" name="bottom"/>
    </contour>
  </outline>
</glyph>
<glyph name="f" format="1">
  <advance width="396"/>
  <unicode hex="0066"/>
  <note>
    GF Latin Plus glyph
  </note>
  <outline>
    <contour>
      <point x="75" y="400" type="line"/>
      <point x="148" y="400" type="line"/>
      <point x="85" y="0" type="line"/>
      <point x="258" y="0" type="line"/>
      <point x="321" y="400" type="line"/>
      <point x="440" y="400" type="line"/>
      <point x="462" y="538" type="line"/>
      <point x="343" y="538" type="line"/>
      <point x="346" y="567" type="line" smooth="yes"/>
      <point x="351" y="616"/>
      <point x="372" y="632"/>
      <point x="421" y="632" type="curve" smooth="yes"/>
      <point x="490" y="632" type="line"/>
      <point x="511" y="759" type="line"/>
      <point x="481" y="764"/>
      <point x="436" y="769"/>
      <point x="388" y="769" type="curve" smooth="yes"/>
      <point x="266" y="769"/>
      <point x="202" y="728"/>
      <point x="183" y="616" type="curve" smooth="yes"/>
      <point x="170" y="538" type="line"/>
      <point x="93" y="511" type="line"/>
    </contour>
    <contour>
      <point x="168" y="-150" type="move" name="bottom"/>
    </contour>
  </outline>
</glyph>
<glyph name="currency" format="1">
  <advance width="609"/>
  <unicode hex="00A4"/>
  <note>
    GF Latin Plus glyph
  </note>
  <outline>
    <contour>
      <point x="384" y="537" type="curve" smooth="yes"/>
      <point x="267" y="537"/>
      <point x="179" y="440"/>
      <point x="179" y="333" type="curve" smooth="yes"/>
      <point x="179" y="247"/>
      <point x="248" y="175"/>
      <point x="338" y="175" type="curve" smooth="yes"/>
      <point x="455" y="175"/>
      <point x="544" y="272"/>
      <point x="544" y="379" type="curve" smooth="yes"/>
      <point x="544" y="464"/>
      <point x="474" y="537"/>
    </contour>
    <contour>
      <point x="314" y="495" type="line"/>
      <point x="226" y="599" type="line"/>
      <point x="145" y="530" type="line"/>
      <point x="232" y="426" type="line"/>
    </contour>
    <contour>
      <point x="509" y="424" type="line"/>
      <point x="632" y="530" type="line"/>
      <point x="573" y="599" type="line"/>
      <point x="450" y="493" type="line"/>
    </contour>
    <contour>
      <point x="577" y="182" type="line"/>
      <point x="488" y="288" type="line"/>
      <point x="407" y="219" type="line"/>
      <point x="496" y="113" type="line"/>
    </contour>
    <contour>
      <point x="149" y="113" type="line"/>
      <point x="279" y="221" type="line"/>
      <point x="215" y="290" type="line"/>
      <point x="90" y="182" type="line"/>
    </contour>
    <contour>
      <point x="376" y="452" type="curve" smooth="yes"/>
      <point x="423" y="452"/>
      <point x="458" y="416"/>
      <point x="458" y="371" type="curve" smooth="yes"/>
      <point x="458" y="300"/>
      <point x="408" y="260"/>
      <point x="346" y="260" type="curve" smooth="yes"/>
      <point x="300" y="260"/>
      <point x="266" y="296"/>
      <point x="266" y="341" type="curve" smooth="yes"/>
      <point x="266" y="411"/>
      <point x="315" y="452"/>
    </contour>
  </outline>
</glyph>
<glyph name="degree" format="1">
  <advance width="314"/>
  <unicode hex="00B0"/>
  <note>
    GF Latin Plus glyph
  </note>
  <outline>
    <contour>
      <point x="268" y="695" type="curve" smooth="yes"/>
      <point x="304" y="695"/>
      <point x="327" y="672"/>
      <point x="327" y="638" type="curve" smooth="yes"/>
      <point x="327" y="586"/>
      <point x="294" y="553"/>
      <point x="245" y="553" type="curve" smooth="yes"/>
      <point x="208" y="553"/>
      <point x="184" y="575"/>
      <point x="184" y="610" type="curve" smooth="yes"/>
      <point x="184" y="660"/>
      <point x="218" y="695"/>
    </contour>
    <contour>
      <point x="106" y="605" type="curve" smooth="yes"/>
      <point x="106" y="526"/>
      <point x="157" y="475"/>
      <point x="233" y="475" type="curve" smooth="yes"/>
      <point x="353" y="475"/>
      <point x="406" y="556"/>
      <point x="406" y="644" type="curve" smooth="yes"/>
      <point x="406" y="721"/>
      <point x="358" y="772"/>
      <point x="280" y="772" type="curve" smooth="yes"/>
      <point x="162" y="772"/>
      <point x="106" y="690"/>
    </contour>
  </outline>
</glyph>
<glyph name="Uhorn" format="1">
  <advance width="689"/>
  <unicode hex="01AF"/>
  <note>
    GF Latin Plus glyph
  </note>
  <outline>
    <contour>
      <point x="578" y="649" type="line"/>
      <point x="664" y="649" type="line" smooth="yes"/>
      <point x="758" y="649"/>
      <point x="830" y="720"/>
      <point x="851" y="851" type="curve"/>
      <point x="733" y="851" type="line"/>
      <point x="720" y="769"/>
      <point x="690" y="742"/>
      <point x="646" y="742" type="curve" smooth="yes"/>
      <point x="592" y="742" type="line"/>
    </contour>
    <component base="U"/>
    <contour>
      <point x="456" y="810" type="move" name="top"/>
    </contour>
    <contour>
      <point x="341" y="-150" type="move" name="bottom"/>
    </contour>
  </outline>
</glyph>
<glyph name="guilsinglright" format="1">
  <advance width="373"/>
  <unicode hex="203A"/>
  <note>
    GF Latin Plus glyph
  </note>
  <outline>
    <contour>
      <point x="388" y="283" type="line"/>
      <point x="199" y="504" type="line"/>
      <point x="99" y="419" type="line"/>
      <point x="215" y="283" type="line"/>
      <point x="56" y="146" type="line"/>
      <point x="125" y="58" type="line"/>
    </contour>
  </outline>
</glyph>
<glyph name="n.superior" format="1">
  <advance width="444"/>
  <unicode hex="207F"/>
  <note>
    GF Latin Plus glyph
  </note>
  <outline>
    <contour>
      <point x="77" y="280" type="line"/>
      <point x="220" y="280" type="line"/>
      <point x="258" y="517" type="line"/>
      <point x="272" y="532"/>
      <point x="294" y="543"/>
      <point x="316" y="543" type="curve" smooth="yes"/>
      <point x="340" y="543"/>
      <point x="351" y="536"/>
      <point x="351" y="520" type="curve" smooth="yes"/>
      <point x="351" y="515"/>
      <point x="350" y="504"/>
      <point x="346" y="481" type="curve" smooth="yes"/>
      <point x="314" y="280" type="line"/>
      <point x="457" y="280" type="line"/>
      <point x="490" y="486" type="line" smooth="yes"/>
      <point x="500" y="545"/>
      <point x="500" y="572"/>
      <point x="500" y="591" type="curve" smooth="yes"/>
      <point x="500" y="641"/>
      <point x="462" y="676"/>
      <point x="401" y="676" type="curve" smooth="yes"/>
      <point x="347" y="676"/>
      <point x="305" y="657"/>
      <point x="275" y="635" type="curve"/>
      <point x="258" y="672" type="line"/>
      <point x="139" y="672" type="line"/>
    </contour>
    <contour>
      <point x="333" y="752" type="move" name="top"/>
    </contour>
    <contour>
      <point x="242" y="171" type="move" name="bottom"/>
    </contour>
  </outline>
</glyph>
<glyph name="guarani" format="1">
  <advance width="609"/>
  <unicode hex="20B2"/>
  <note>
    GF Latin Plus glyph
  </note>
  <outline>
    <contour>
      <point x="349" y="-84" type="line"/>
      <point x="489" y="793" type="line"/>
      <point x="413" y="793" type="line"/>
      <point x="273" y="-84" type="line"/>
    </contour>
    <contour>
      <point x="67" y="215" type="curve" smooth="yes"/>
      <point x="67" y="82"/>
      <point x="111" y="-5"/>
      <point x="246" y="-5" type="curve" smooth="yes"/>
      <point x="335" y="-5"/>
      <point x="417" y="26"/>
      <point x="458" y="50" type="curve"/>
      <point x="473" y="0" type="line"/>
      <point x="586" y="0" type="line"/>
      <point x="654" y="431" type="line"/>
      <point x="499" y="431" type="line"/>
      <point x="457" y="169" type="line"/>
      <point x="432" y="162"/>
      <point x="383" y="154"/>
      <point x="329" y="154" type="curve" smooth="yes"/>
      <point x="258" y="154"/>
      <point x="226" y="175"/>
      <point x="226" y="261" type="curve" smooth="yes"/>
      <point x="226" y="401"/>
      <point x="259" y="591"/>
      <point x="433" y="591" type="curve" smooth="yes"/>
      <point x="526" y="591"/>
      <point x="609" y="584"/>
      <point x="652" y="577" type="curve"/>
      <point x="674" y="711" type="line"/>
      <point x="598" y="732"/>
      <point x="536" y="746"/>
      <point x="425" y="746" type="curve" smooth="yes"/>
      <point x="132" y="746"/>
      <point x="67" y="456"/>
    </contour>
  </outline>
</glyph>
<glyph name="numero" format="1">
  <advance width="1186"/>
  <unicode hex="2116"/>
  <note>
    GF Latin Plus glyph
  </note>
  <outline>
    <contour>
      <point x="62" y="0" type="line"/>
      <point x="234" y="0" type="line"/>
      <point x="322" y="555" type="line" smooth="yes"/>
      <point x="324" y="568"/>
      <point x="332" y="575"/>
      <point x="340" y="575" type="curve" smooth="yes"/>
      <point x="347" y="575"/>
      <point x="353" y="570"/>
      <point x="355" y="558" type="curve" smooth="yes"/>
      <point x="424" y="140" type="line" smooth="yes"/>
      <point x="440" y="42"/>
      <point x="492" y="-6"/>
      <point x="596" y="-6" type="curve" smooth="yes"/>
      <point x="678" y="-6"/>
      <point x="760" y="45"/>
      <point x="776" y="146" type="curve" smooth="yes"/>
      <point x="836" y="524" type="line" smooth="yes"/>
      <point x="848" y="602"/>
      <point x="875" y="618"/>
      <point x="925" y="618" type="curve" smooth="yes"/>
      <point x="1085" y="618" type="line" smooth="yes"/>
      <point x="1112" y="618"/>
      <point x="1127" y="608"/>
      <point x="1127" y="575" type="curve" smooth="yes"/>
      <point x="1127" y="535"/>
      <point x="1109" y="481"/>
      <point x="1074" y="481" type="curve" smooth="yes"/>
      <point x="1061" y="481" type="line" smooth="yes"/>
      <point x="1039" y="481"/>
      <point x="1025" y="493"/>
      <point x="1025" y="528" type="curve" smooth="yes"/>
      <point x="1025" y="538"/>
      <point x="1026" y="549"/>
      <point x="1029" y="563" type="curve"/>
      <point x="905" y="563" type="line"/>
      <point x="901" y="535"/>
      <point x="899" y="512"/>
      <point x="899" y="490" type="curve" smooth="yes"/>
      <point x="899" y="392"/>
      <point x="948" y="363"/>
      <point x="1038" y="363" type="curve" smooth="yes"/>
      <point x="1066" y="363" type="line" smooth="yes"/>
      <point x="1197" y="363"/>
      <point x="1260" y="490"/>
      <point x="1260" y="612" type="curve" smooth="yes"/>
      <point x="1260" y="706"/>
      <point x="1215" y="758"/>
      <point x="1114" y="758" type="curve" smooth="yes"/>
      <point x="920" y="758" type="line" smooth="yes"/>
      <point x="792" y="758"/>
      <point x="692" y="710"/>
      <point x="665" y="536" type="curve" smooth="yes"/>
      <point x="610" y="186" type="line" smooth="yes"/>
      <point x="607" y="173"/>
      <point x="601" y="166"/>
      <point x="592" y="166" type="curve" smooth="yes"/>
      <point x="584" y="166"/>
      <point x="580" y="174"/>
      <point x="578" y="182" type="curve" smooth="yes"/>
      <point x="509" y="604" type="line" smooth="yes"/>
      <point x="494" y="701"/>
      <point x="448" y="748"/>
      <point x="344" y="748" type="curve" smooth="yes"/>
      <point x="250" y="748"/>
      <point x="171" y="690"/>
      <point x="153" y="579" type="curve" smooth="yes"/>
    </contour>
  </outline>
</glyph>
<glyph name="emptyset" format="1">
  <advance width="609"/>
  <unicode hex="2205"/>
  <outline>
    <contour>
      <point x="597" y="619" type="line"/>
      <point x="44" y="-24" type="line"/>
      <point x="96" y="-75" type="line"/>
      <point x="648" y="569" type="line"/>
    </contour>
    <contour>
      <point x="263" y="218" type="curve" smooth="yes"/>
      <point x="263" y="318" type="line" smooth="yes"/>
      <point x="263" y="378"/>
      <point x="290" y="396"/>
      <point x="325" y="396" type="curve" smooth="yes"/>
      <point x="367" y="396" type="line" smooth="yes"/>
      <point x="402" y="396"/>
      <point x="428" y="378"/>
      <point x="428" y="318" type="curve" smooth="yes"/>
      <point x="428" y="218" type="line" smooth="yes"/>
      <point x="428" y="159"/>
      <point x="402" y="140"/>
      <point x="367" y="140" type="curve" smooth="yes"/>
      <point x="325" y="140" type="line" smooth="yes"/>
      <point x="290" y="140"/>
      <point x="263" y="159"/>
    </contour>
    <contour>
      <point x="90" y="226" type="line" smooth="yes"/>
      <point x="90" y="100"/>
      <point x="159" y="-6"/>
      <point x="311" y="-6" type="curve" smooth="yes"/>
      <point x="380" y="-6" type="line" smooth="yes"/>
      <point x="533" y="-6"/>
      <point x="601" y="100"/>
      <point x="601" y="226" type="curve" smooth="yes"/>
      <point x="601" y="311" type="line" smooth="yes"/>
      <point x="601" y="437"/>
      <point x="533" y="543"/>
      <point x="380" y="543" type="curve" smooth="yes"/>
      <point x="311" y="543" type="line" smooth="yes"/>
      <point x="159" y="543"/>
      <point x="90" y="437"/>
      <point x="90" y="311" type="curve" smooth="yes"/>
    </contour>
  </outline>
</glyph>
<glyph name="product" format="1">
  <advance width="646"/>
  <unicode hex="220F"/>
  <outline>
    <contour>
      <point x="81" y="0" type="line"/>
      <point x="253" y="0" type="line"/>
      <point x="346" y="587" type="line"/>
      <point x="484" y="587" type="line"/>
      <point x="391" y="0" type="line"/>
      <point x="564" y="0" type="line"/>
      <point x="657" y="587" type="line"/>
      <point x="726" y="587" type="line"/>
      <point x="751" y="742" type="line"/>
      <point x="130" y="742" type="line"/>
      <point x="105" y="587" type="line"/>
      <point x="173" y="587" type="line"/>
    </contour>
  </outline>
</glyph>
<glyph name="infinity" format="1">
  <advance width="660"/>
  <unicode hex="221E"/>
  <outline>
    <contour>
      <point x="462" y="340" type="curve"/>
      <point x="486" y="370"/>
      <point x="521" y="403"/>
      <point x="562" y="403" type="curve" smooth="yes"/>
      <point x="612" y="403"/>
      <point x="614" y="377"/>
      <point x="609" y="341" type="curve" smooth="yes"/>
      <point x="604" y="306"/>
      <point x="586" y="280"/>
      <point x="542" y="280" type="curve" smooth="yes"/>
      <point x="503" y="280"/>
      <point x="476" y="310"/>
    </contour>
    <contour>
      <point x="162" y="341" type="curve" smooth="yes"/>
      <point x="167" y="379"/>
      <point x="177" y="403"/>
      <point x="227" y="403" type="curve" smooth="yes"/>
      <point x="260" y="403"/>
      <point x="289" y="372"/>
      <point x="304" y="341" type="curve"/>
      <point x="282" y="314"/>
      <point x="248" y="280"/>
      <point x="207" y="280" type="curve" smooth="yes"/>
      <point x="163" y="280"/>
      <point x="156" y="304"/>
    </contour>
    <contour>
      <point x="42" y="359" type="curve" smooth="yes"/>
      <point x="27" y="267"/>
      <point x="51" y="169"/>
      <point x="178" y="169" type="curve" smooth="yes"/>
      <point x="254" y="169"/>
      <point x="309" y="188"/>
      <point x="367" y="263" type="curve"/>
      <point x="411" y="189"/>
      <point x="471" y="169"/>
      <point x="538" y="169" type="curve" smooth="yes"/>
      <point x="664" y="169"/>
      <point x="714" y="231"/>
      <point x="728" y="323" type="curve" smooth="yes"/>
      <point x="742" y="408"/>
      <point x="730" y="514"/>
      <point x="592" y="514" type="curve" smooth="yes"/>
      <point x="516" y="514"/>
      <point x="441" y="484"/>
      <point x="394" y="419" type="curve"/>
      <point x="358" y="479"/>
      <point x="309" y="514"/>
      <point x="232" y="514" type="curve" smooth="yes"/>
      <point x="94" y="514"/>
      <point x="56" y="446"/>
    </contour>
  </outline>
</glyph>
<glyph name="approxequal" format="1">
  <advance width="609"/>
  <unicode hex="2248"/>
  <note>
    GF Latin Plus glyph
  </note>
  <outline>
    <contour>
      <point x="139" y="377" type="line"/>
      <point x="173" y="403"/>
      <point x="215" y="417"/>
      <point x="255" y="417" type="curve" smooth="yes"/>
      <point x="332" y="417"/>
      <point x="396" y="377"/>
      <point x="486" y="377" type="curve" smooth="yes"/>
      <point x="543" y="377"/>
      <point x="571" y="399"/>
      <point x="593" y="417" type="curve"/>
      <point x="615" y="555" type="line"/>
      <point x="591" y="535"/>
      <point x="554" y="515"/>
      <point x="499" y="515" type="curve" smooth="yes"/>
      <point x="408" y="515"/>
      <point x="356" y="555"/>
      <point x="268" y="555" type="curve" smooth="yes"/>
      <point x="228" y="555"/>
      <point x="193" y="541"/>
      <point x="161" y="515" type="curve"/>
    </contour>
    <contour>
      <point x="101" y="137" type="line"/>
      <point x="135" y="163"/>
      <point x="177" y="177"/>
      <point x="217" y="177" type="curve" smooth="yes"/>
      <point x="294" y="177"/>
      <point x="358" y="137"/>
      <point x="448" y="137" type="curve" smooth="yes"/>
      <point x="505" y="137"/>
      <point x="533" y="159"/>
      <point x="555" y="177" type="curve"/>
      <point x="577" y="315" type="line"/>
      <point x="553" y="295"/>
      <point x="516" y="275"/>
      <point x="461" y="275" type="curve" smooth="yes"/>
      <point x="370" y="275"/>
      <point x="318" y="315"/>
      <point x="230" y="315" type="curve" smooth="yes"/>
      <point x="190" y="315"/>
      <point x="155" y="301"/>
      <point x="123" y="275" type="curve"/>
    </contour>
  </outline>
</glyph>
<glyph name="greaterequal" format="1">
  <advance width="609"/>
  <unicode hex="2265"/>
  <note>
    GF Latin Plus glyph
  </note>
  <outline>
    <contour>
      <point x="122" y="232" type="line"/>
      <point x="555" y="351" type="line"/>
      <point x="579" y="503" type="line"/>
      <point x="182" y="616" type="line"/>
      <point x="158" y="465" type="line"/>
      <point x="399" y="428" type="line"/>
      <point x="146" y="384" type="line"/>
    </contour>
    <component base="minus" xOffset="-40" yOffset="-250"/>
  </outline>
</glyph>
<glyph name="f_f" format="1">
  <advance width="793"/>
  <unicode hex="FB00"/>
  <note>
    GF Latin Plus glyph
  </note>
  <outline>
    <contour>
      <point x="75" y="400" type="line"/>
      <point x="148" y="400" type="line"/>
      <point x="85" y="0" type="line"/>
      <point x="258" y="0" type="line"/>
      <point x="321" y="400" type="line"/>
      <point x="644" y="400" type="line"/>
      <point x="665" y="538" type="line"/>
      <point x="343" y="538" type="line"/>
      <point x="346" y="567" type="line" smooth="yes"/>
      <point x="351" y="616"/>
      <point x="372" y="632"/>
      <point x="421" y="632" type="curve" smooth="yes"/>
      <point x="490" y="632" type="line"/>
      <point x="511" y="759" type="line"/>
      <point x="481" y="764"/>
      <point x="436" y="769"/>
      <point x="388" y="769" type="curve" smooth="yes"/>
      <point x="266" y="769"/>
      <point x="202" y="728"/>
      <point x="183" y="616" type="curve" smooth="yes"/>
      <point x="170" y="538" type="line"/>
      <point x="93" y="511" type="line"/>
    </contour>
    <component base="f" xOffset="396"/>
  </outline>
</glyph>
<glyph name="fl" format="1">
  <advance width="736"/>
  <unicode hex="FB02"/>
  <note>
    GF Latin Plus glyph
  </note>
  <outline>
    <contour>
      <point x="75" y="400" type="line"/>
      <point x="148" y="400" type="line"/>
      <point x="85" y="0" type="line"/>
      <point x="258" y="0" type="line"/>
      <point x="321" y="400" type="line"/>
      <point x="440" y="400" type="line"/>
      <point x="462" y="538" type="line"/>
      <point x="343" y="538" type="line"/>
      <point x="346" y="567" type="line" smooth="yes"/>
      <point x="351" y="616"/>
      <point x="372" y="632"/>
      <point x="426" y="632" type="curve" smooth="yes"/>
      <point x="714" y="632" type="line"/>
      <point x="734" y="736" type="line"/>
      <point x="608" y="761"/>
      <point x="518" y="769"/>
      <point x="410" y="769" type="curve" smooth="yes"/>
      <point x="270" y="769"/>
      <point x="202" y="732"/>
      <point x="183" y="616" type="curve" smooth="yes"/>
      <point x="170" y="538" type="line"/>
      <point x="93" y="511" type="line"/>
    </contour>
    <contour>
      <point x="474" y="188" type="line" smooth="yes"/>
      <point x="471" y="169"/>
      <point x="470" y="149"/>
      <point x="470" y="125" type="curve" smooth="yes"/>
      <point x="470" y="51"/>
      <point x="529" y="0"/>
      <point x="644" y="0" type="curve" smooth="yes"/>
      <point x="711" y="0" type="line"/>
      <point x="730" y="125" type="line"/>
      <point x="697" y="130" type="line" smooth="yes"/>
      <point x="666" y="135"/>
      <point x="648" y="143"/>
      <point x="648" y="178" type="curve" smooth="yes"/>
      <point x="648" y="194"/>
      <point x="654" y="234"/>
      <point x="656" y="248" type="curve" smooth="yes"/>
      <point x="734" y="736" type="line"/>
      <point x="561" y="736" type="line"/>
    </contour>
  </outline>
</glyph>
<glyph name="C.smcp" format="1">
  <advance width="497"/>
  <note>
    GF Latin Plus glyph
  </note>
  <outline>
    <contour>
      <point x="86" y="302" type="curve" smooth="yes"/>
      <point x="80" y="263"/>
      <point x="77" y="227"/>
      <point x="78" y="197" type="curve" smooth="yes"/>
      <point x="78" y="73"/>
      <point x="148" y="-5"/>
      <point x="292" y="-5" type="curve" smooth="yes"/>
      <point x="346" y="-5"/>
      <point x="407" y="-1"/>
      <point x="462" y="20" type="curve"/>
      <point x="482" y="142" type="line"/>
      <point x="437" y="138"/>
      <point x="400" y="134"/>
      <point x="335" y="134" type="curve" smooth="yes"/>
      <point x="263" y="134"/>
      <point x="240" y="153"/>
      <point x="240" y="200" type="curve" smooth="yes"/>
      <point x="240" y="217"/>
      <point x="243" y="241"/>
      <point x="248" y="276" type="curve" smooth="yes"/>
      <point x="268" y="396"/>
      <point x="309" y="426"/>
      <point x="374" y="426" type="curve" smooth="yes"/>
      <point x="421" y="426"/>
      <point x="480" y="416"/>
      <point x="522" y="403" type="curve"/>
      <point x="542" y="526" type="line"/>
      <point x="508" y="543"/>
      <point x="442" y="565"/>
      <point x="342" y="565" type="curve" smooth="yes"/>
      <point x="183" y="565"/>
      <point x="112" y="477"/>
    </contour>
    <contour>
      <point x="376" y="650" type="move" name="top"/>
    </contour>
    <contour>
      <point x="255" y="-150" type="move" name="bottom"/>
    </contour>
  </outline>
</glyph>
<glyph name="N.smcp" format="1">
  <advance width="593"/>
  <note>
    GF Latin Plus glyph
  </note>
  <outline>
    <contour>
      <point x="54" y="0" type="line"/>
      <point x="218" y="0" type="line"/>
      <point x="266" y="298" type="line"/>
      <point x="417" y="0" type="line"/>
      <point x="547" y="0" type="line"/>
      <point x="636" y="560" type="line"/>
      <point x="472" y="560" type="line"/>
      <point x="425" y="262" type="line"/>
      <point x="274" y="560" type="line"/>
      <point x="143" y="560" type="line"/>
    </contour>
    <contour>
      <point x="383" y="650" type="move" name="top"/>
    </contour>
    <contour>
      <point x="259" y="-150" type="move" name="bottom"/>
    </contour>
  </outline>
</glyph>
<glyph name="T.smcp" format="1">
  <advance width="513"/>
  <note>
    GF Latin Plus glyph
  </note>
  <outline>
    <contour>
      <point x="94" y="421" type="line"/>
      <point x="237" y="421" type="line"/>
      <point x="170" y="0" type="line"/>
      <point x="334" y="0" type="line"/>
      <point x="401" y="421" type="line"/>
      <point x="544" y="421" type="line"/>
      <point x="567" y="560" type="line"/>
      <point x="116" y="560" type="line"/>
    </contour>
    <contour>
      <point x="354" y="650" type="move" name="top"/>
    </contour>
    <contour>
      <point x="227" y="-150" type="move" name="bottom"/>
    </contour>
  </outline>
</glyph>
<glyph name="W.salt.smcp" format="1">
  <advance width="866"/>
  <outline>
    <contour>
      <point x="102" y="560" type="line"/>
      <point x="162" y="0" type="line"/>
      <point x="375" y="0" type="line"/>
      <point x="467" y="195" type="line"/>
      <point x="500" y="0" type="line"/>
      <point x="713" y="0" type="line"/>
      <point x="942" y="560" type="line"/>
      <point x="773" y="560" type="line"/>
      <point x="624" y="176" type="line"/>
      <point x="580" y="411" type="line"/>
      <point x="638" y="560" type="line"/>
      <point x="469" y="560" type="line"/>
      <point x="310" y="176" type="line"/>
      <point x="272" y="560" type="line"/>
    </contour>
    <contour>
      <point x="544" y="650" type="move" name="top"/>
    </contour>
  </outline>
</glyph>
<glyph name="W.smcp" format="1">
  <advance width="866"/>
  <note>
    GF Latin Plus glyph
  </note>
  <outline>
    <contour>
      <point x="112" y="560" type="line"/>
      <point x="154" y="0" type="line"/>
      <point x="318" y="0" type="line"/>
      <point x="469" y="329" type="line"/>
      <point x="518" y="0" type="line"/>
      <point x="681" y="0" type="line"/>
      <point x="899" y="560" type="line"/>
      <point x="729" y="560" type="line"/>
      <point x="614" y="233" type="line"/>
      <point x="579" y="560" type="line"/>
      <point x="432" y="560" type="line"/>
      <point x="295" y="232" type="line"/>
      <point x="281" y="560" type="line"/>
    </contour>
    <contour>
      <point x="528" y="650" type="move" name="top"/>
    </contour>
  </outline>
</glyph>
<glyph name="b.salt" format="1">
  <advance width="578"/>
  <outline>
    <contour>
      <point x="244" y="134" type="line"/>
      <point x="283" y="387" type="line"/>
      <point x="303" y="396"/>
      <point x="335" y="405"/>
      <point x="368" y="405" type="curve" smooth="yes"/>
      <point x="398" y="405"/>
      <point x="428" y="394"/>
      <point x="428" y="324" type="curve" smooth="yes"/>
      <point x="428" y="219"/>
      <point x="382" y="134"/>
      <point x="313" y="134" type="curve" smooth="yes"/>
    </contour>
    <contour>
      <point x="54" y="35" type="line"/>
      <point x="121" y="11"/>
      <point x="213" y="-6"/>
      <point x="294" y="-6" type="curve" smooth="yes"/>
      <point x="507" y="-6"/>
      <point x="600" y="146"/>
      <point x="600" y="346" type="curve" smooth="yes"/>
      <point x="600" y="481"/>
      <point x="538" y="544"/>
      <point x="428" y="544" type="curve" smooth="yes"/>
      <point x="385" y="544"/>
      <point x="338" y="529"/>
      <point x="303" y="513" type="curve"/>
      <point x="342" y="763" type="line"/>
      <point x="170" y="763" type="line"/>
    </contour>
    <contour>
      <point x="270" y="850" type="move" name="top"/>
    </contour>
  </outline>
</glyph>
<glyph name="b.superior" format="1">
  <advance width="437"/>
  <note>
    GF Latin Plus glyph
  </note>
  <outline>
    <contour>
      <point x="241" y="409" type="curve"/>
      <point x="263" y="549" type="line"/>
      <point x="282" y="555"/>
      <point x="299" y="558"/>
      <point x="316" y="558" type="curve" smooth="yes"/>
      <point x="334" y="558"/>
      <point x="350" y="548"/>
      <point x="350" y="510" type="curve" smooth="yes"/>
      <point x="350" y="502"/>
      <point x="349" y="491"/>
      <point x="348" y="479" type="curve" smooth="yes"/>
      <point x="340" y="413"/>
      <point x="320" y="394"/>
      <point x="290" y="394" type="curve" smooth="yes"/>
      <point x="266" y="394"/>
      <point x="252" y="403"/>
    </contour>
    <contour>
      <point x="77" y="280" type="line"/>
      <point x="205" y="280" type="line"/>
      <point x="226" y="315" type="line"/>
      <point x="254" y="290"/>
      <point x="293" y="276"/>
      <point x="339" y="276" type="curve" smooth="yes"/>
      <point x="412" y="276"/>
      <point x="466" y="332"/>
      <point x="484" y="441" type="curve" smooth="yes"/>
      <point x="489" y="478"/>
      <point x="493" y="513"/>
      <point x="493" y="534" type="curve" smooth="yes"/>
      <point x="493" y="624"/>
      <point x="446" y="676"/>
      <point x="365" y="676" type="curve" smooth="yes"/>
      <point x="342" y="676"/>
      <point x="306" y="668"/>
      <point x="279" y="656" type="curve"/>
      <point x="308" y="834" type="line"/>
      <point x="165" y="834" type="line"/>
    </contour>
    <contour>
      <point x="248" y="171" type="move" name="bottom"/>
    </contour>
  </outline>
</glyph>
<glyph name="braceleft.smcp" format="1">
  <advance width="282"/>
  <note>
    GF Latin Plus glyph
  </note>
  <outline>
    <contour>
      <point x="59" y="181" type="line"/>
      <point x="89" y="181"/>
      <point x="98" y="172"/>
      <point x="99" y="151" type="curve" smooth="yes"/>
      <point x="99" y="133"/>
      <point x="69" y="-15"/>
      <point x="69" y="-60" type="curve" smooth="yes"/>
      <point x="70" y="-131"/>
      <point x="121" y="-158"/>
      <point x="247" y="-158" type="curve"/>
      <point x="265" y="-44" type="line"/>
      <point x="245" y="-44"/>
      <point x="239" y="-34"/>
      <point x="239" y="-17" type="curve" smooth="yes"/>
      <point x="239" y="7"/>
      <point x="268" y="159"/>
      <point x="268" y="187" type="curve" smooth="yes"/>
      <point x="267" y="222"/>
      <point x="240" y="242"/>
      <point x="195" y="252" type="curve"/>
      <point x="248" y="256"/>
      <point x="284" y="275"/>
      <point x="293" y="332" type="curve" smooth="yes"/>
      <point x="313" y="460" type="line" smooth="yes"/>
      <point x="318" y="495"/>
      <point x="322" y="511"/>
      <point x="352" y="511" type="curve"/>
      <point x="373" y="634" type="line"/>
      <point x="240" y="634"/>
      <point x="172" y="608"/>
      <point x="154" y="494" type="curve" smooth="yes"/>
      <point x="133" y="361" type="line" smooth="yes"/>
      <point x="129" y="333"/>
      <point x="108" y="324"/>
      <point x="81" y="321" type="curve"/>
    </contour>
  </outline>
</glyph>
<glyph name="bracketleft.smcp" format="1">
  <advance width="300"/>
  <note>
    GF Latin Plus glyph
  </note>
  <outline>
    <contour>
      <point x="48" y="11" type="line" smooth="yes"/>
      <point x="46" y="-4"/>
      <point x="44" y="-20"/>
      <point x="44" y="-37" type="curve" smooth="yes"/>
      <point x="44" y="-99"/>
      <point x="73" y="-158"/>
      <point x="181" y="-158" type="curve" smooth="yes"/>
      <point x="256" y="-158" type="line"/>
      <point x="274" y="-35" type="line"/>
      <point x="252" y="-35" type="line" smooth="yes"/>
      <point x="228" y="-35"/>
      <point x="212" y="-27"/>
      <point x="212" y="1" type="curve" smooth="yes"/>
      <point x="212" y="7"/>
      <point x="213" y="13"/>
      <point x="213" y="19" type="curve" smooth="yes"/>
      <point x="283" y="456" type="line" smooth="yes"/>
      <point x="289" y="499"/>
      <point x="309" y="511"/>
      <point x="339" y="511" type="curve" smooth="yes"/>
      <point x="361" y="511" type="line"/>
      <point x="380" y="634" type="line"/>
      <point x="306" y="634" type="line" smooth="yes"/>
      <point x="194" y="634"/>
      <point x="139" y="584"/>
      <point x="122" y="480" type="curve" smooth="yes"/>
    </contour>
  </outline>
</glyph>
<glyph name="circumflexcomb_acutecomb" format="1">
  <outline>
    <contour>
      <point x="-444" y="631" type="line"/>
      <point x="-344" y="631" type="line"/>
      <point x="-279" y="668" type="line"/>
      <point x="-228" y="631" type="line"/>
      <point x="-128" y="631" type="line"/>
      <point x="-205" y="744" type="line"/>
      <point x="-322" y="744" type="line"/>
    </contour>
    <contour>
      <point x="-173" y="718" type="line"/>
      <point x="-81" y="718" type="line"/>
      <point x="7" y="843" type="line"/>
      <point x="-122" y="843" type="line"/>
    </contour>
    <contour>
      <point x="-281" y="650" type="move" name="_top"/>
    </contour>
  </outline>
</glyph>
<glyph name="dblgravecomb" format="1">
  <note>
    GF Latin Plus glyph
  </note>
  <outline>
    <contour>
      <point x="-539" y="773" type="line"/>
      <point x="-451" y="631" type="line"/>
      <point x="-349" y="631" type="line"/>
      <point x="-401" y="773" type="line"/>
    </contour>
    <contour>
      <point x="-349" y="773" type="line"/>
      <point x="-261" y="631" type="line"/>
      <point x="-159" y="631" type="line"/>
      <point x="-211" y="773" type="line"/>
    </contour>
    <contour>
      <point x="-314" y="650" type="move" name="_top"/>
    </contour>
  </outline>
</glyph>
<glyph name="emdash.smcp" format="1">
  <advance width="611"/>
  <note>
    GF Latin Plus glyph
  </note>
  <outline>
    <contour>
      <point x="53" y="157" type="line"/>
      <point x="608" y="157" type="line"/>
      <point x="627" y="279" type="line"/>
      <point x="72" y="279" type="line"/>
    </contour>
  </outline>
</glyph>
<glyph name="exclam.smcp" format="1">
  <advance width="246"/>
  <note>
    GF Latin Plus glyph
  </note>
  <outline>
    <contour>
      <point x="92" y="190" type="line"/>
      <point x="214" y="190" type="line"/>
      <point x="293" y="559" type="line"/>
      <point x="129" y="559" type="line"/>
    </contour>
    <component base="period"/>
  </outline>
</glyph>
<glyph name="f.superior" format="1">
  <advance width="297"/>
  <note>
    GF Latin Plus glyph
  </note>
  <outline>
    <contour>
      <point x="95" y="555" type="line"/>
      <point x="147" y="555" type="line"/>
      <point x="103" y="280" type="line"/>
      <point x="246" y="280" type="line"/>
      <point x="290" y="555" type="line"/>
      <point x="371" y="555" type="line"/>
      <point x="389" y="672" type="line"/>
      <point x="308" y="672" type="line"/>
      <point x="309" y="684" type="line" smooth="yes"/>
      <point x="311" y="716"/>
      <point x="328" y="721"/>
      <point x="360" y="721" type="curve" smooth="yes"/>
      <point x="407" y="721" type="line"/>
      <point x="424" y="830" type="line"/>
      <point x="402" y="834"/>
      <point x="370" y="838"/>
      <point x="332" y="838" type="curve" smooth="yes"/>
      <point x="242" y="838"/>
      <point x="189" y="817"/>
      <point x="174" y="727" type="curve" smooth="yes"/>
      <point x="165" y="672" type="line"/>
      <point x="109" y="649" type="line"/>
    </contour>
    <contour>
      <point x="173" y="171" type="move" name="bottom"/>
    </contour>
  </outline>
</glyph>
<glyph name="four.smcp" format="1">
  <advance width="534"/>
  <note>
    GF Latin Plus glyph
  </note>
  <outline>
    <contour>
      <point x="54" y="168" type="line"/>
      <point x="73" y="100" type="line"/>
      <point x="316" y="100" type="line"/>
      <point x="300" y="0" type="line"/>
      <point x="464" y="0" type="line"/>
      <point x="480" y="100" type="line"/>
      <point x="528" y="123" type="line"/>
      <point x="546" y="230" type="line"/>
      <point x="501" y="230" type="line"/>
      <point x="524" y="381" type="line"/>
      <point x="392" y="381" type="line"/>
      <point x="349" y="306" type="line"/>
      <point x="337" y="230" type="line"/>
      <point x="261" y="230" type="line"/>
      <point x="451" y="560" type="line"/>
      <point x="284" y="560" type="line"/>
    </contour>
  </outline>
</glyph>
<glyph name="franc.smcp" format="1">
  <advance width="510"/>
  <note>
    GF Latin Plus glyph
  </note>
  <outline>
    <contour>
      <point x="110" y="0" type="line"/>
      <point x="274" y="0" type="line"/>
      <point x="310" y="225" type="line"/>
      <point x="456" y="233" type="line"/>
      <point x="476" y="356" type="line"/>
      <point x="332" y="364" type="line"/>
      <point x="336" y="389" type="line" smooth="yes"/>
      <point x="338" y="401"/>
      <point x="348" y="417"/>
      <point x="375" y="417" type="curve" smooth="yes"/>
      <point x="525" y="417" type="line"/>
      <point x="546" y="547" type="line"/>
      <point x="472" y="557"/>
      <point x="389" y="560"/>
      <point x="350" y="560" type="curve" smooth="yes"/>
      <point x="281" y="560"/>
      <point x="194" y="532"/>
      <point x="177" y="427" type="curve" smooth="yes"/>
    </contour>
    <contour>
      <point x="66" y="75" type="line"/>
      <point x="120" y="68" type="line"/>
      <point x="284" y="68" type="line"/>
      <point x="404" y="75" type="line"/>
      <point x="422" y="182" type="line"/>
      <point x="304" y="190" type="line"/>
      <point x="140" y="190" type="line"/>
      <point x="84" y="182" type="line"/>
    </contour>
  </outline>
</glyph>
<glyph name="guarani.smcp" format="1">
  <advance width="510"/>
  <note>
    GF Latin Plus glyph
  </note>
  <outline>
    <contour>
      <point x="294" y="-58" type="line"/>
      <point x="398" y="597" type="line"/>
      <point x="328" y="597" type="line"/>
      <point x="225" y="-58" type="line"/>
    </contour>
    <contour>
      <point x="54" y="178" type="curve" smooth="yes"/>
      <point x="54" y="64"/>
      <point x="99" y="-4"/>
      <point x="206" y="-4" type="curve" smooth="yes"/>
      <point x="276" y="-4"/>
      <point x="342" y="20"/>
      <point x="370" y="36" type="curve"/>
      <point x="386" y="0" type="line"/>
      <point x="492" y="0" type="line"/>
      <point x="544" y="336" type="line"/>
      <point x="398" y="336" type="line"/>
      <point x="368" y="148" type="line"/>
      <point x="349" y="143"/>
      <point x="319" y="139"/>
      <point x="276" y="139" type="curve" smooth="yes"/>
      <point x="228" y="139"/>
      <point x="204" y="149"/>
      <point x="204" y="227" type="curve" smooth="yes"/>
      <point x="202" y="297"/>
      <point x="248" y="428"/>
      <point x="346" y="428" type="curve" smooth="yes"/>
      <point x="430" y="428"/>
      <point x="492" y="422"/>
      <point x="528" y="417" type="curve"/>
      <point x="547" y="538" type="line"/>
      <point x="486" y="554"/>
      <point x="434" y="567"/>
      <point x="353" y="567" type="curve" smooth="yes"/>
      <point x="136" y="567"/>
      <point x="52" y="346"/>
    </contour>
  </outline>
</glyph>
<glyph name="hookabovecomb" format="1">
  <note>
    GF Latin Plus glyph
  </note>
  <outline>
    <contour>
      <point x="-267" y="715" type="line"/>
      <point x="-256" y="718"/>
      <point x="-245" y="721"/>
      <point x="-235" y="721" type="curve" smooth="yes"/>
      <point x="-217" y="721"/>
      <point x="-210" y="715"/>
      <point x="-210" y="704" type="curve" smooth="yes"/>
      <point x="-210" y="691"/>
      <point x="-216" y="675"/>
      <point x="-250" y="666" type="curve"/>
      <point x="-261" y="591" type="line"/>
      <point x="-155" y="620"/>
      <point x="-118" y="667"/>
      <point x="-118" y="719" type="curve" smooth="yes"/>
      <point x="-118" y="766"/>
      <point x="-144" y="790"/>
      <point x="-200" y="790" type="curve" smooth="yes"/>
      <point x="-221" y="790"/>
      <point x="-241" y="787"/>
      <point x="-256" y="782" type="curve"/>
    </contour>
    <contour>
      <point x="-221" y="650" type="move" name="_top"/>
    </contour>
  </outline>
</glyph>
<glyph name="hyphen.smcp" format="1">
  <advance width="307"/>
  <note>
    GF Latin Plus glyph
  </note>
  <outline>
    <contour>
      <point x="53" y="157" type="line"/>
      <point x="305" y="157" type="line"/>
      <point x="324" y="279" type="line"/>
      <point x="72" y="279" type="line"/>
    </contour>
  </outline>
</glyph>
<glyph name="jdotless" format="1">
  <advance width="269"/>
  <note>
    GF Latin Plus glyph
  </note>
  <outline>
    <contour>
      <point x="11" y="-237" type="line"/>
      <point x="139" y="-237" type="line"/>
      <point x="172" y="-171"/>
      <point x="208" y="-87"/>
      <point x="221" y="-4" type="curve" smooth="yes"/>
      <point x="307" y="538" type="line"/>
      <point x="134" y="538" type="line"/>
    </contour>
    <contour>
      <point x="237" y="650" type="move" name="top"/>
    </contour>
  </outline>
</glyph>
<glyph name="k.superior" format="1">
  <advance width="435"/>
  <note>
    GF Latin Plus glyph
  </note>
  <outline>
    <contour>
      <point x="77" y="280" type="line"/>
      <point x="220" y="280" type="line"/>
      <point x="245" y="439" type="line"/>
      <point x="252" y="439"/>
      <point x="266" y="441"/>
      <point x="275" y="443" type="curve"/>
      <point x="346" y="280" type="line"/>
      <point x="492" y="280" type="line"/>
      <point x="394" y="488" type="line"/>
      <point x="435" y="514"/>
      <point x="484" y="562"/>
      <point x="514" y="672" type="curve"/>
      <point x="371" y="672" type="line"/>
      <point x="356" y="607"/>
      <point x="319" y="565"/>
      <point x="262" y="549" type="curve"/>
      <point x="308" y="834" type="line"/>
      <point x="165" y="834" type="line"/>
    </contour>
    <contour>
      <point x="256" y="171" type="move" name="bottom"/>
    </contour>
  </outline>
</glyph>
<glyph name="kip.smcp" format="1">
  <advance width="510"/>
  <note>
    GF Latin Plus glyph
  </note>
  <outline>
    <contour>
      <point x="52" y="203" type="line"/>
      <point x="509" y="203" type="line"/>
      <point x="532" y="350" type="line"/>
      <point x="74" y="350" type="line"/>
    </contour>
    <contour>
      <point x="53" y="0" type="line"/>
      <point x="217" y="0" type="line"/>
      <point x="250" y="207" type="line"/>
      <point x="287" y="207" type="line"/>
      <point x="325" y="0" type="line"/>
      <point x="497" y="0" type="line"/>
      <point x="426" y="278" type="line"/>
      <point x="578" y="560" type="line"/>
      <point x="406" y="560" type="line"/>
      <point x="309" y="346" type="line"/>
      <point x="272" y="346" type="line"/>
      <point x="306" y="560" type="line"/>
      <point x="142" y="560" type="line"/>
    </contour>
  </outline>
</glyph>
<glyph name="micro" format="1">
  <advance width="598"/>
  <note>
    GF Latin Plus glyph
  </note>
  <outline>
    <contour>
      <point x="5" y="-270" type="line"/>
      <point x="178" y="-270" type="line"/>
      <point x="260" y="250" type="line"/>
      <point x="88" y="250" type="line"/>
    </contour>
    <contour>
      <point x="133" y="538" type="line"/>
      <point x="78" y="190" type="line" smooth="yes"/>
      <point x="77" y="179"/>
      <point x="76" y="169"/>
      <point x="76" y="158" type="curve" smooth="yes"/>
      <point x="76" y="50"/>
      <point x="180" y="-6"/>
      <point x="264" y="-6" type="curve" smooth="yes"/>
      <point x="319" y="-6"/>
      <point x="358" y="16"/>
      <point x="393" y="53" type="curve"/>
      <point x="405" y="0" type="line"/>
      <point x="548" y="0" type="line"/>
      <point x="633" y="538" type="line"/>
      <point x="460" y="538" type="line"/>
      <point x="404" y="181" type="line"/>
      <point x="378" y="160"/>
      <point x="345" y="146"/>
      <point x="309" y="146" type="curve" smooth="yes"/>
      <point x="276" y="146"/>
      <point x="252" y="156"/>
      <point x="252" y="192" type="curve" smooth="yes"/>
      <point x="252" y="198"/>
      <point x="254" y="204"/>
      <point x="254" y="210" type="curve" smooth="yes"/>
      <point x="306" y="538" type="line"/>
    </contour>
  </outline>
</glyph>
<glyph name="naira.smcp" format="1">
  <advance width="510"/>
  <note>
    GF Latin Plus glyph
  </note>
  <outline>
    <contour>
      <point x="71" y="0" type="line"/>
      <point x="200" y="0" type="line"/>
      <point x="245" y="283" type="line"/>
      <point x="335" y="0" type="line"/>
      <point x="439" y="0" type="line"/>
      <point x="528" y="559" type="line"/>
      <point x="399" y="559" type="line"/>
      <point x="354" y="277" type="line"/>
      <point x="263" y="559" type="line"/>
      <point x="159" y="559" type="line"/>
    </contour>
    <contour>
      <point x="95" y="371" type="line"/>
      <point x="189" y="371" type="line"/>
      <point x="201" y="445" type="line"/>
      <point x="106" y="445" type="line"/>
    </contour>
    <contour>
      <point x="275" y="371" type="line"/>
      <point x="533" y="371" type="line"/>
      <point x="544" y="445" type="line"/>
      <point x="245" y="445" type="line"/>
    </contour>
    <contour>
      <point x="55" y="114" type="line"/>
      <point x="378" y="114" type="line"/>
      <point x="341" y="188" type="line"/>
      <point x="66" y="188" type="line"/>
    </contour>
    <contour>
      <point x="423" y="114" type="line"/>
      <point x="493" y="114" type="line"/>
      <point x="504" y="188" type="line"/>
      <point x="435" y="188" type="line"/>
    </contour>
  </outline>
</glyph>
<glyph name="one.tosf" format="1">
  <advance width="609"/>
  <outline>
    <contour>
      <point x="147" y="369" type="line"/>
      <point x="297" y="374" type="line"/>
      <point x="261" y="146" type="line"/>
      <point x="101" y="146" type="line"/>
      <point x="78" y="0" type="line"/>
      <point x="554" y="0" type="line"/>
      <point x="577" y="146" type="line"/>
      <point x="434" y="146" type="line"/>
      <point x="496" y="539" type="line"/>
      <point x="412" y="539" type="line"/>
      <point x="168" y="506" type="line"/>
    </contour>
  </outline>
</glyph>
<glyph name="ordmasculine.smcp" format="1">
  <advance width="415"/>
  <outline>
    <contour>
      <point x="309" y="612" type="curve" smooth="yes"/>
      <point x="336" y="612"/>
      <point x="347" y="598"/>
      <point x="347" y="561" type="curve" smooth="yes"/>
      <point x="347" y="522"/>
      <point x="327" y="452"/>
      <point x="276" y="452" type="curve" smooth="yes"/>
      <point x="248" y="452"/>
      <point x="238" y="467"/>
      <point x="238" y="500" type="curve" smooth="yes"/>
      <point x="238" y="546"/>
      <point x="256" y="612"/>
    </contour>
    <contour>
      <point x="105" y="488" type="curve" smooth="yes"/>
      <point x="105" y="372"/>
      <point x="169" y="342"/>
      <point x="260" y="342" type="curve" smooth="yes"/>
      <point x="402" y="342"/>
      <point x="480" y="465"/>
      <point x="480" y="577" type="curve" smooth="yes"/>
      <point x="480" y="692"/>
      <point x="415" y="721"/>
      <point x="323" y="721" type="curve" smooth="yes"/>
      <point x="181" y="721"/>
      <point x="105" y="601"/>
    </contour>
    <contour>
      <point x="51" y="214" type="line"/>
      <point x="432" y="214" type="line"/>
      <point x="444" y="294" type="line"/>
      <point x="63" y="294" type="line"/>
    </contour>
  </outline>
</glyph>
<glyph name="parenright.smcp" format="1">
  <advance width="359"/>
  <note>
    GF Latin Plus glyph
  </note>
  <outline>
    <contour>
      <point x="-5" y="-158" type="curve"/>
      <point x="139" y="-158" type="line"/>
      <point x="242" y="-67"/>
      <point x="367" y="170"/>
      <point x="365" y="370" type="curve" smooth="yes"/>
      <point x="364" y="505"/>
      <point x="318" y="590"/>
      <point x="266" y="648" type="curve"/>
      <point x="122" y="648" type="line"/>
      <point x="168" y="556"/>
      <point x="200" y="472"/>
      <point x="201" y="362" type="curve" smooth="yes"/>
      <point x="203" y="179"/>
      <point x="93" y="-38"/>
    </contour>
  </outline>
</glyph>
<glyph name="peso.smcp" format="1">
  <advance width="510"/>
  <note>
    GF Latin Plus glyph
  </note>
  <outline>
    <contour>
      <point x="434" y="373" type="line"/>
      <point x="549" y="373" type="line"/>
      <point x="561" y="447" type="line"/>
      <point x="446" y="447" type="line"/>
    </contour>
    <contour>
      <point x="79" y="373" type="line"/>
      <point x="197" y="373" type="line"/>
      <point x="208" y="447" type="line"/>
      <point x="91" y="447" type="line"/>
    </contour>
    <contour>
      <point x="392" y="238" type="line"/>
      <point x="528" y="238" type="line"/>
      <point x="540" y="312" type="line"/>
      <point x="429" y="312" type="line"/>
    </contour>
    <contour>
      <point x="57" y="238" type="line"/>
      <point x="179" y="238" type="line"/>
      <point x="190" y="312" type="line"/>
      <point x="69" y="312" type="line"/>
    </contour>
    <contour>
      <point x="261" y="289" type="line"/>
      <point x="282" y="421" type="line"/>
      <point x="322" y="421" type="line" smooth="yes"/>
      <point x="346" y="421"/>
      <point x="354" y="407"/>
      <point x="354" y="384" type="curve" smooth="yes"/>
      <point x="354" y="328"/>
      <point x="333" y="289"/>
      <point x="302" y="289" type="curve" smooth="yes"/>
    </contour>
    <contour>
      <point x="69" y="0" type="line"/>
      <point x="215" y="0" type="line"/>
      <point x="241" y="165" type="line"/>
      <point x="255" y="160"/>
      <point x="284" y="150"/>
      <point x="320" y="150" type="curve" smooth="yes"/>
      <point x="419" y="150"/>
      <point x="506" y="220"/>
      <point x="504" y="424" type="curve" smooth="yes"/>
      <point x="502" y="544"/>
      <point x="430" y="560"/>
      <point x="365" y="560" type="curve" smooth="yes"/>
      <point x="158" y="560" type="line"/>
    </contour>
  </outline>
</glyph>
<glyph name="ringhalfright" format="1">
  <advance width="210"/>
  <outline>
    <contour>
      <point x="140" y="743" type="line"/>
      <point x="177" y="743"/>
      <point x="196" y="733"/>
      <point x="196" y="706" type="curve" smooth="yes"/>
      <point x="196" y="676"/>
      <point x="175" y="652"/>
      <point x="125" y="652" type="curve"/>
      <point x="114" y="581" type="line"/>
      <point x="229" y="581"/>
      <point x="285" y="648"/>
      <point x="285" y="713" type="curve" smooth="yes"/>
      <point x="285" y="781"/>
      <point x="238" y="814"/>
      <point x="150" y="814" type="curve"/>
    </contour>
  </outline>
</glyph>
<glyph name="rupeeIndian.smcp" format="1">
  <advance width="510"/>
  <note>
    GF Latin Plus glyph
  </note>
  <outline>
    <contour>
      <point x="271" y="486" type="line"/>
      <point x="551" y="486" type="line"/>
      <point x="563" y="560" type="line"/>
      <point x="283" y="560" type="line"/>
    </contour>
    <contour>
      <point x="100" y="314" type="line"/>
      <point x="524" y="314" type="line"/>
      <point x="536" y="389" type="line"/>
      <point x="112" y="389" type="line"/>
    </contour>
    <contour>
      <point x="119" y="430" type="line"/>
      <point x="241" y="430" type="line" smooth="yes"/>
      <point x="267" y="430"/>
      <point x="279" y="413"/>
      <point x="279" y="378" type="curve" smooth="yes"/>
      <point x="280" y="299"/>
      <point x="246" y="271"/>
      <point x="217" y="271" type="curve" smooth="yes"/>
      <point x="94" y="271" type="line"/>
      <point x="74" y="149" type="line"/>
      <point x="106" y="149"/>
      <point x="146" y="149"/>
      <point x="170" y="150" type="curve"/>
      <point x="231" y="0" type="line"/>
      <point x="409" y="0" type="line"/>
      <point x="337" y="167" type="line"/>
      <point x="394" y="197"/>
      <point x="447" y="284"/>
      <point x="446" y="402" type="curve" smooth="yes"/>
      <point x="445" y="523"/>
      <point x="366" y="560"/>
      <point x="293" y="560" type="curve" smooth="yes"/>
      <point x="140" y="560" type="line"/>
    </contour>
  </outline>
</glyph>
<glyph name="s.superior" format="1">
  <advance width="382"/>
  <note>
    GF Latin Plus glyph
  </note>
  <outline>
    <contour>
      <point x="78" y="299" type="line"/>
      <point x="121" y="284"/>
      <point x="161" y="276"/>
      <point x="238" y="276" type="curve" smooth="yes"/>
      <point x="341" y="276"/>
      <point x="409" y="303"/>
      <point x="421" y="382" type="curve" smooth="yes"/>
      <point x="425" y="415" type="line" smooth="yes"/>
      <point x="428" y="429"/>
      <point x="428" y="442"/>
      <point x="428" y="454" type="curve" smooth="yes"/>
      <point x="428" y="502"/>
      <point x="384" y="534"/>
      <point x="315" y="534" type="curve" smooth="yes"/>
      <point x="255" y="534" type="line" smooth="yes"/>
      <point x="240" y="534"/>
      <point x="235" y="537"/>
      <point x="235" y="543" type="curve" smooth="yes"/>
      <point x="235" y="546"/>
      <point x="236" y="552"/>
      <point x="238" y="560" type="curve" smooth="yes"/>
      <point x="240" y="569"/>
      <point x="245" y="573"/>
      <point x="264" y="573" type="curve" smooth="yes"/>
      <point x="431" y="573" type="line"/>
      <point x="444" y="652" type="line"/>
      <point x="404" y="666"/>
      <point x="341" y="676"/>
      <point x="290" y="676" type="curve" smooth="yes"/>
      <point x="165" y="676"/>
      <point x="123" y="629"/>
      <point x="112" y="566" type="curve" smooth="yes"/>
      <point x="108" y="541" type="line" smooth="yes"/>
      <point x="106" y="528"/>
      <point x="105" y="517"/>
      <point x="105" y="506" type="curve" smooth="yes"/>
      <point x="105" y="443"/>
      <point x="160" y="417"/>
      <point x="225" y="417" type="curve" smooth="yes"/>
      <point x="276" y="417" type="line" smooth="yes"/>
      <point x="291" y="417"/>
      <point x="295" y="412"/>
      <point x="295" y="405" type="curve" smooth="yes"/>
      <point x="295" y="402"/>
      <point x="295" y="398"/>
      <point x="294" y="392" type="curve" smooth="yes"/>
      <point x="292" y="383"/>
      <point x="285" y="378"/>
      <point x="270" y="378" type="curve" smooth="yes"/>
      <point x="91" y="378" type="line"/>
    </contour>
    <contour>
      <point x="321" y="752" type="move" name="top"/>
    </contour>
    <contour>
      <point x="230" y="171" type="move" name="bottom"/>
    </contour>
  </outline>
</glyph>
<glyph name="seven.smcp" format="1">
  <advance width="473"/>
  <note>
    GF Latin Plus glyph
  </note>
  <outline>
    <contour>
      <point x="88" y="405" type="line"/>
      <point x="301" y="405" type="line"/>
      <point x="79" y="0" type="line"/>
      <point x="270" y="0" type="line"/>
      <point x="528" y="498" type="line"/>
      <point x="500" y="560" type="line"/>
      <point x="113" y="560" type="line"/>
    </contour>
  </outline>
</glyph>
<glyph name="sterling.smcp" format="1">
  <advance width="486"/>
  <note>
    GF Latin Plus glyph
  </note>
  <outline>
    <contour>
      <point x="45" y="0" type="line"/>
      <point x="438" y="0" type="line"/>
      <point x="460" y="138" type="line"/>
      <point x="281" y="138" type="line"/>
      <point x="294" y="223" type="line"/>
      <point x="427" y="229" type="line"/>
      <point x="439" y="313" type="line"/>
      <point x="309" y="320" type="line"/>
      <point x="317" y="369" type="line" smooth="yes"/>
      <point x="323" y="408"/>
      <point x="339" y="413"/>
      <point x="379" y="413" type="curve" smooth="yes"/>
      <point x="503" y="413" type="line"/>
      <point x="522" y="538" type="line"/>
      <point x="488" y="546"/>
      <point x="453" y="551"/>
      <point x="407" y="551" type="curve" smooth="yes"/>
      <point x="265" y="551"/>
      <point x="181" y="542"/>
      <point x="155" y="375" type="curve" smooth="yes"/>
      <point x="145" y="320" type="line"/>
      <point x="90" y="309" type="line"/>
      <point x="78" y="234" type="line"/>
      <point x="130" y="223" type="line"/>
      <point x="117" y="138" type="line"/>
      <point x="65" y="119" type="line"/>
    </contour>
  </outline>
</glyph>
<glyph name="strokeshortcomb" format="1">
  <outline>
    <contour>
      <point x="-330" y="269" type="line"/>
      <point x="-20" y="269" type="line"/>
      <point x="-8" y="347" type="line"/>
      <point x="-318" y="347" type="line"/>
    </contour>
  </outline>
</glyph>
<glyph name="three.oldstyle" format="1">
  <advance width="568"/>
  <outline>
    <contour>
      <point x="108" y="380" type="line"/>
      <point x="284" y="380" type="line" smooth="yes"/>
      <point x="352" y="380"/>
      <point x="379" y="365"/>
      <point x="379" y="330" type="curve" smooth="yes"/>
      <point x="379" y="325"/>
      <point x="378" y="321"/>
      <point x="378" y="316" type="curve" smooth="yes"/>
      <point x="374" y="300" type="line" smooth="yes"/>
      <point x="368" y="262"/>
      <point x="338" y="250"/>
      <point x="280" y="246" type="curve" smooth="yes"/>
      <point x="136" y="236" type="line"/>
      <point x="114" y="102" type="line"/>
      <point x="265" y="95" type="line" smooth="yes"/>
      <point x="311" y="92"/>
      <point x="342" y="78"/>
      <point x="342" y="44" type="curve" smooth="yes"/>
      <point x="342" y="40"/>
      <point x="342" y="36"/>
      <point x="341" y="33" type="curve" smooth="yes"/>
      <point x="337" y="8" type="line" smooth="yes"/>
      <point x="330" y="-34"/>
      <point x="300" y="-47"/>
      <point x="221" y="-47" type="curve" smooth="yes"/>
      <point x="28" y="-47" type="line"/>
      <point x="5" y="-185" type="line"/>
      <point x="78" y="-199"/>
      <point x="166" y="-210"/>
      <point x="262" y="-210" type="curve" smooth="yes"/>
      <point x="395" y="-210"/>
      <point x="486" y="-145"/>
      <point x="504" y="-25" type="curve" smooth="yes"/>
      <point x="510" y="8" type="line" smooth="yes"/>
      <point x="512" y="22"/>
      <point x="513" y="36"/>
      <point x="513" y="49" type="curve" smooth="yes"/>
      <point x="513" y="111"/>
      <point x="484" y="154"/>
      <point x="437" y="169" type="curve"/>
      <point x="497" y="188"/>
      <point x="536" y="233"/>
      <point x="546" y="306" type="curve" smooth="yes"/>
      <point x="555" y="358" type="line" smooth="yes"/>
      <point x="558" y="372"/>
      <point x="559" y="386"/>
      <point x="559" y="398" type="curve" smooth="yes"/>
      <point x="559" y="510"/>
      <point x="476" y="544"/>
      <point x="367" y="544" type="curve" smooth="yes"/>
      <point x="282" y="544"/>
      <point x="201" y="530"/>
      <point x="130" y="519" type="curve"/>
    </contour>
  </outline>
</glyph>
<glyph name="two.smcp" format="1">
  <advance width="488"/>
  <note>
    GF Latin Plus glyph
  </note>
  <outline>
    <contour>
      <point x="117" y="418" type="line"/>
      <point x="285" y="418" type="line" smooth="yes"/>
      <point x="315" y="418"/>
      <point x="326" y="409"/>
      <point x="326" y="387" type="curve" smooth="yes"/>
      <point x="327" y="361"/>
      <point x="308" y="328"/>
      <point x="272" y="299" type="curve" smooth="yes"/>
      <point x="62" y="122" type="line"/>
      <point x="43" y="0" type="line"/>
      <point x="454" y="0" type="line"/>
      <point x="477" y="138" type="line"/>
      <point x="290" y="138" type="line"/>
      <point x="399" y="231" type="line" smooth="yes"/>
      <point x="468" y="289"/>
      <point x="491" y="355"/>
      <point x="490" y="433" type="curve" smooth="yes"/>
      <point x="489" y="508"/>
      <point x="446" y="565"/>
      <point x="326" y="565" type="curve" smooth="yes"/>
      <point x="246" y="565"/>
      <point x="186" y="551"/>
      <point x="137" y="541" type="curve"/>
    </contour>
  </outline>
</glyph>
<glyph name="u.salt" format="1">
  <advance width="589"/>
  <outline>
    <contour>
      <point x="73" y="157" type="line" smooth="yes"/>
      <point x="71" y="145"/>
      <point x="70" y="135"/>
      <point x="70" y="125" type="curve" smooth="yes"/>
      <point x="70" y="44"/>
      <point x="126" y="-6"/>
      <point x="267" y="-6" type="curve" smooth="yes"/>
      <point x="358" y="-6"/>
      <point x="476" y="19"/>
      <point x="550" y="66" type="curve"/>
      <point x="624" y="538" type="line"/>
      <point x="452" y="538" type="line"/>
      <point x="393" y="170" type="line"/>
      <point x="370" y="154"/>
      <point x="332" y="146"/>
      <point x="309" y="146" type="curve" smooth="yes"/>
      <point x="275" y="146"/>
      <point x="253" y="158"/>
      <point x="253" y="192" type="curve" smooth="yes"/>
      <point x="253" y="198"/>
      <point x="254" y="204"/>
      <point x="254" y="210" type="curve" smooth="yes"/>
      <point x="306" y="538" type="line"/>
      <point x="133" y="538" type="line"/>
    </contour>
    <contour>
      <point x="396" y="650" type="move" name="top"/>
    </contour>
    <contour>
      <point x="339" y="0" type="move" name="ogonek"/>
    </contour>
    <contour>
      <point x="267" y="-150" type="move" name="bottom"/>
    </contour>
  </outline>
</glyph>
